<svg xmlns="http://www.w3.org/2000/svg" width="300.9" height="80" viewBox="0 0 300.9 80"><path d="M15.8 11.3v25.4h9.3c1 0 1.699.7 1.699 1.7v3.4c0 .9-.699 1.7-1.699 1.7h-9.3v30.4c0 1-.699 1.699-1.699 1.699h-3.4c-1.001.001-1.701-.699-1.701-1.699v-66c0-1.8 1.601-3.4 3.4-3.4h12.7c1 0 1.699.9 1.699 1.7v3.4c0 1-.699 1.7-1.699 1.7h-9.3zM60.4 16.9v57c0 1-.7 1.699-1.7 1.699h-3.4c-1 0-1.699-.699-1.699-1.699v-30.5h-11v30.5c0 1-.7 1.699-1.7 1.699h-3.4c-.899 0-1.7-.699-1.7-1.699v-57c0-6.8 5.601-12.4 12.4-12.4 6.599 0 12.199 5.6 12.199 12.4zm-6.9 0c0-3.1-2.5-5.6-5.5-5.6-3.1 0-5.6 2.5-5.6 5.6v19.7h11v-19.7h.1zM94 31.1c0 3.5-1.5 6.7-3.899 9 2.399 2.2 3.899 5.4 3.899 8.9v14.3c0 6.7-5.6 12.3-12.3 12.3h-9c-1.8 0-3.4-1.5-3.4-3.399v-64.301c0-1.8 1.601-3.4 3.4-3.4h9c6.7 0 12.3 5.6 12.3 12.4v14.2zm-6.9-14.2c0-3.1-2.5-5.6-5.5-5.6h-5.6v25.4h5.6c3 0 5.5-2.5 5.5-5.6v-14.2zm-5.4 26.7h-5.6v25.3h5.6c3 0 5.5-2.5 5.5-5.5v-14.4c-.1-3-2.5-5.4-5.5-5.4zM126.9 31.1c0 3.5-1.4 6.6-3.7 8.9 2.4 2.2 3.7 5.5 3.7 9v24.9c0 1-.7 1.699-1.7 1.699h-3.4c-1 0-1.699-.699-1.699-1.699v-24.9c0-3.1-2.5-5.6-5.5-5.6h-5.5v30.5c0 1-.9 1.699-1.7 1.699h-3.401c-1 0-1.7-.699-1.7-1.699v-66c0-1.8 1.5-3.4 3.4-3.4h8.9c6.8 0 12.3 5.6 12.3 12.4v14.2zm-6.8-14.2c0-3.1-2.5-5.6-5.5-5.6h-5.5v25.3h5.5c3 0 5.5-2.5 5.5-5.5v-14.2zM142.7 73.9c0 1-.7 1.699-1.7 1.699h-3.4c-1 0-1.7-.699-1.7-1.699v-67.69999999999999c0-.9.7-1.7 1.7-1.7h3.4c1 0 1.7.9 1.7 1.7v67.7zM169.3 20.4v-3.6c0-3-2.5-5.5-5.5-5.5s-5.5 2.5-5.5 5.5v46.5c0 3 2.5 5.5 5.5 5.5s5.5-2.5 5.5-5.5v-4c0-1 .7-1.7 1.7-1.7h3.4c1 0 1.7.7 1.7 1.7v4c0 6.7-5.601 12.3-12.301 12.3-6.8 0-12.3-5.6-12.3-12.3v-46.5c0-6.7 5.5-12.3 12.3-12.3 6.7 0 12.301 5.6 12.301 12.3v3.6c0 1-.7 1.7-1.7 1.7h-3.4c-.9.1-1.7-.7-1.7-1.7zM208.7 16.9v57c0 1-.7 1.699-1.7 1.699h-3.4c-1 0-1.7-.699-1.7-1.699v-30.5h-11v30.5c0 1-.8 1.699-1.7 1.699h-3.4c-.899 0-1.699-.699-1.699-1.699v-57c0-6.8 5.6-12.4 12.399-12.4 6.6 0 12.2 5.6 12.2 12.4zm-6.9 0c0-3.1-2.5-5.6-5.5-5.6-3.1 0-5.6 2.5-5.6 5.6v19.7h11v-19.7h.1zM233.2 6.2v3.4c0 1-.8 1.7-1.7 1.7h-4.8v62.6c0 1-.7 1.699-1.7 1.699h-3.4c-1 0-1.7-.699-1.7-1.699v-62.6h-4.9c-1 0-1.7-.7-1.7-1.7v-3.4c0-.9.801-1.7 1.7-1.7h16.5c.9 0 1.7.9 1.7 1.7zM262.5 16.9v46.4c0 6.8-5.6 12.3-12.3 12.3-6.8 0-12.4-5.5-12.4-12.3v-46.4c0-6.8 5.601-12.4 12.4-12.4s12.3 5.6 12.3 12.4zm-6.8 0c0-3.1-2.5-5.6-5.5-5.6-3.1 0-5.6 2.5-5.6 5.6v46.4c0 3 2.5 5.5 5.6 5.5 3 0 5.5-2.5 5.5-5.5v-46.4zM295.5 31.1c0 3.5-1.399 6.6-3.7 8.9 2.4 2.2 3.7 5.5 3.7 9v24.9c0 1-.7 1.699-1.7 1.699h-3.4c-1 0-1.7-.699-1.7-1.699v-24.9c0-3.1-2.5-5.6-5.5-5.6h-5.5v30.5c0 1-.9 1.699-1.7 1.699h-3.4c-1 0-1.7-.699-1.7-1.699v-66c0-1.8 1.5-3.4 3.399-3.4h8.9c6.8 0 12.3 5.6 12.3 12.4v14.2h.001zm-6.9-14.2c0-3.1-2.5-5.6-5.5-5.6h-5.5v25.3h5.5c3 0 5.5-2.5 5.5-5.5v-14.2z"/></svg>