<svg xmlns="http://www.w3.org/2000/svg" width="300.9" height="80" viewBox="0 0 300.9 80"><g fill="#fff"><path d="M14 11.25v25.4h9.301c1 0 1.698.7 1.698 1.7v3.4c0 .9-.698 1.7-1.698 1.7h-9.301v30.4c0 1-.698 1.699-1.698 1.699h-3.4c-1.002.001-1.702-.698-1.702-1.698v-66c0-1.8 1.602-3.4 3.4-3.4h12.7c1 0 1.698.9 1.698 1.7v3.4c0 1-.698 1.7-1.698 1.7h-9.3zM58.6 16.85v57c0 1-.7 1.699-1.7 1.699h-3.4c-1 0-1.698-.699-1.698-1.699v-30.5h-11v30.5c0 1-.7 1.699-1.7 1.699h-3.4c-.898 0-1.7-.699-1.7-1.699v-57c0-6.8 5.602-12.4 12.4-12.4 6.598 0 12.198 5.6 12.198 12.4zm-6.9 0c0-3.1-2.5-5.6-5.5-5.6-3.1 0-5.6 2.5-5.6 5.6v19.7h11v-19.7h.1zM92.2 31.05c0 3.5-1.5 6.7-3.898 9 2.398 2.2 3.898 5.4 3.898 8.9v14.3c0 6.7-5.6 12.3-12.3 12.3h-9c-1.8 0-3.4-1.5-3.4-3.398v-64.302c0-1.8 1.602-3.4 3.4-3.4h9c6.7 0 12.3 5.6 12.3 12.4v14.2zm-6.899-14.2c0-3.1-2.5-5.6-5.5-5.6h-5.601v25.4h5.601c3 0 5.5-2.5 5.5-5.6v-14.2zm-5.401 26.7h-5.6v25.301h5.6c3 0 5.5-2.5 5.5-5.5v-14.4c-.099-3.001-2.5-5.401-5.5-5.401zM125.1 31.05c0 3.5-1.4 6.6-3.7 8.9 2.4 2.2 3.7 5.5 3.7 9v24.9c0 1-.7 1.699-1.7 1.699h-3.4c-1 0-1.698-.699-1.698-1.699v-24.9c0-3.1-2.5-5.6-5.5-5.6h-5.5v30.5c0 1-.9 1.699-1.7 1.699h-3.402c-1 0-1.7-.699-1.7-1.699v-66c0-1.8 1.5-3.4 3.4-3.4h8.9c6.8 0 12.3 5.6 12.3 12.4v14.2zm-6.799-14.2c0-3.1-2.5-5.6-5.5-5.6h-5.5v25.3h5.5c3 0 5.5-2.5 5.5-5.5v-14.2zM140.9 73.851c0 1-.7 1.699-1.7 1.699h-3.399c-1 0-1.7-.699-1.7-1.699v-67.701c0-.9.7-1.7 1.7-1.7h3.399c1 0 1.7.9 1.7 1.7v67.701zM167.5 20.35v-3.6c0-3-2.5-5.5-5.5-5.5s-5.5 2.5-5.5 5.5v46.5c0 3 2.5 5.5 5.5 5.5s5.5-2.5 5.5-5.5v-4c0-1 .7-1.7 1.7-1.7h3.4c1 0 1.7.7 1.7 1.7v4c0 6.7-5.602 12.3-12.302 12.3-6.8 0-12.3-5.6-12.3-12.3v-46.5c0-6.7 5.5-12.3 12.3-12.3 6.7 0 12.302 5.6 12.302 12.3v3.6c0 1-.7 1.7-1.7 1.7h-3.4c-.899.1-1.7-.7-1.7-1.7zM206.9 16.85v57c0 1-.7 1.699-1.7 1.699h-3.399c-1 0-1.7-.699-1.7-1.699v-30.5h-11v30.5c0 1-.8 1.699-1.7 1.699h-3.401c-.898 0-1.698-.699-1.698-1.699v-57c0-6.8 5.6-12.4 12.398-12.4 6.601 0 12.2 5.6 12.2 12.4zm-6.9 0c0-3.1-2.5-5.6-5.5-5.6-3.1 0-5.6 2.5-5.6 5.6v19.7h11v-19.7h.1zM231.4 6.15v3.4c0 1-.8 1.7-1.7 1.7h-4.8v62.601c0 1-.7 1.699-1.7 1.699h-3.399c-1 0-1.7-.699-1.7-1.699v-62.601h-4.9c-1 0-1.7-.7-1.7-1.7v-3.4c0-.9.802-1.7 1.7-1.7h16.5c.899 0 1.699.9 1.699 1.7zM260.7 16.85v46.4c0 6.8-5.6 12.3-12.3 12.3-6.8 0-12.4-5.5-12.4-12.3v-46.4c0-6.8 5.602-12.4 12.4-12.4s12.3 5.6 12.3 12.4zm-6.8 0c0-3.1-2.5-5.6-5.5-5.6-3.1 0-5.6 2.5-5.6 5.6v46.4c0 3 2.5 5.5 5.6 5.5 3 0 5.5-2.5 5.5-5.5v-46.4zM293.7 31.05c0 3.5-1.398 6.6-3.7 8.9 2.4 2.2 3.7 5.5 3.7 9v24.9c0 1-.7 1.699-1.7 1.699h-3.4c-1 0-1.7-.699-1.7-1.699v-24.9c0-3.1-2.5-5.6-5.5-5.6h-5.5v30.5c0 1-.9 1.699-1.7 1.699h-3.399c-1 0-1.7-.699-1.7-1.699v-66c0-1.8 1.5-3.4 3.398-3.4h8.9c6.8 0 12.3 5.6 12.3 12.4l.001 14.2zm-6.899-14.2c0-3.1-2.5-5.6-5.5-5.6h-5.5v25.3h5.5c3 0 5.5-2.5 5.5-5.5v-14.2z"/></g></svg>